<?xml version="1.0" encoding="iso-8859-1"?>
<!-- Uploaded to: SVG Repo, www.svgrepo.com, Generator: SVG Repo Mixer Tools -->
<svg version="1.1" id="Layer_1" xmlns="http://www.w3.org/2000/svg" xmlns:xlink="http://www.w3.org/1999/xlink" 
	 viewBox="0 0 392.663 392.663" xml:space="preserve">
<rect x="174.818" y="327.434" style="fill:#FFC10D;" width="43.184" height="43.184"/>
<rect x="69.638" y="21.786" style="fill:#FFFFFF;" width="253.285" height="173.317"/>
<polygon style="fill:#56ACE0;" points="360.224,260.848 328.353,216.824 64.272,216.824 32.272,260.848 "/>
<path style="fill:#194F82;" d="M381.622,282.764c9.244,0,14.093-10.602,8.792-17.325l-45.64-63.03V10.925
	C344.773,4.913,339.925,0,333.848,0H58.777c-6.012,0-10.925,4.848-10.925,10.925v191.483l-45.705,63.03
	c-5.042,7.046-0.517,17.325,8.792,17.325h174.416v22.885h-21.463c-6.012,0-10.925,4.848-10.925,10.925v21.657H20.313
	c-6.012,0-10.925,4.848-10.925,10.925c0,6.012,4.848,10.925,10.925,10.925h132.655v21.657c0,6.012,4.848,10.925,10.925,10.925
	h65.034c6.012,0,10.925-4.848,10.925-10.925v-21.657h132.461c6.012,0,10.925-4.848,10.925-10.925
	c0-6.012-4.848-10.925-10.925-10.925H239.852v-21.657c0-6.012-4.848-10.925-10.925-10.925h-21.786v-22.885H381.622z M69.638,21.786
	h253.285v173.317H69.638V21.786z M328.353,216.824l32,44.024H32.272l32-44.024H328.353z M218.002,370.618h-43.184v-43.184h43.184
	V370.618z"/>
<path style="fill:#FFC10D;" d="M115.602,78.028h41.891c6.012,0,10.925,4.848,10.925,10.925s-4.848,10.925-10.925,10.925h-41.891
	v17.131h20.105c6.012,0,10.925,4.848,10.925,10.925c0,6.012-4.848,10.925-10.925,10.925h-20.105v12.671h161.422V65.358H115.602
	V78.028z"/>
<path style="fill:#194F82;" d="M287.885,43.572H104.612c-6.012,0-10.925,4.848-10.925,10.925v107.895
	c0,6.012,4.848,10.925,10.925,10.925h183.273c6.012,0,10.925-4.848,10.925-10.925V54.497
	C298.81,48.485,293.961,43.572,287.885,43.572z M277.024,151.467H115.602v-12.671h20.105c6.012,0,10.925-4.848,10.925-10.925
	c0-6.012-4.848-10.925-10.925-10.925h-20.105V99.814h41.891c6.012,0,10.925-4.848,10.925-10.925c0-6.012-4.848-10.925-10.925-10.925
	h-41.891V65.293h161.422L277.024,151.467L277.024,151.467z"/>
</svg>