<svg width="602" height="466" viewBox="0 0 602 466" fill="none" xmlns="http://www.w3.org/2000/svg">
<g clip-path="url(#clip0_0_7)">
<g filter="url(#filter0_f_0_7)">
<path fill-rule="evenodd" clip-rule="evenodd" d="M282.765 462.749C357.467 469.768 578.516 416.269 598.169 401.028C622.735 381.976 522.413 374.008 488.822 377.016C461.95 379.423 476.79 388.547 452.223 389.048L301.816 419.129L282.765 462.749Z" fill="url(#paint0_linear_0_7)"/>
</g>
<g clip-path="url(#clip1_0_7)">
<path fill-rule="evenodd" clip-rule="evenodd" d="M0 363.487C0 333.721 106.968 309.592 238.92 309.592V357.97C106.968 357.97 0 382.099 0 411.865L0 363.487Z" fill="black"/>
<g clip-path="url(#clip2_0_7)">
<path fill-rule="evenodd" clip-rule="evenodd" d="M238.919 417.384C106.968 417.384 0 393.255 0 363.489ZM0 363.489V411.867ZM0 411.867C0 441.633 106.968 465.762 238.919 465.762ZM238.92 465.762C370.871 465.762 477.839 441.633 477.839 411.867V363.489C477.839 393.255 370.871 417.384 238.92 417.384" fill="url(#paint1_linear_0_7)"/>
<path d="M477.239 363.487C477.239 367.015 475.657 370.51 472.541 373.945C469.421 377.384 464.792 380.73 458.781 383.936C446.76 390.347 429.324 396.139 407.729 401.011C364.548 410.752 304.865 416.782 238.92 416.782C172.975 416.782 113.291 410.752 70.11 401.011C48.5146 396.139 31.0795 390.347 19.0578 383.936C13.0465 380.73 8.41771 377.384 5.2984 373.945C2.18221 370.51 0.6 367.015 0.6 363.487C0.6 359.959 2.18221 356.463 5.2984 353.028C8.41771 349.59 13.0465 346.244 19.0578 343.038C31.0795 336.627 48.5146 330.834 70.11 325.963C113.291 316.222 172.975 310.192 238.92 310.192C304.865 310.192 364.548 316.222 407.729 325.963C429.324 330.834 446.76 336.627 458.781 343.038C464.792 346.244 469.421 349.59 472.541 353.028C475.657 356.463 477.239 359.959 477.239 363.487Z" fill="url(#paint2_linear_0_7)" stroke="url(#paint3_linear_0_7)" stroke-width="1.2"/>
</g>
<g clip-path="url(#clip3_0_7)">
<path fill-rule="evenodd" clip-rule="evenodd" d="M167.008 364.14H322.615C332.845 364.14 352.383 347.182 349.912 337.257L260.367 33.3132C258.831 27.1452 255.276 21.6683 250.268 17.7542C245.259 13.8401 239.086 11.714 232.729 11.7141L93.0881 0.619141C82.215 0.619141 65.5504 21.9437 68.1771 32.495L146.846 348.383C147.966 352.882 150.56 356.878 154.214 359.734C157.867 362.589 162.371 364.14 167.008 364.14Z" fill="url(#paint4_linear_0_7)"/>
<g clip-path="url(#clip4_0_7)">
<path fill-rule="evenodd" clip-rule="evenodd" d="M167.008 364.14H322.615C332.845 364.14 352.383 347.182 349.912 337.257L260.367 33.3132C258.831 27.1452 255.276 21.6683 250.268 17.7542C245.259 13.8401 239.086 11.714 232.729 11.7141L93.0881 0.619141C82.215 0.619141 65.5504 21.9437 68.1771 32.495L146.846 348.383C147.966 352.882 150.56 356.878 154.214 359.734C157.867 362.589 162.371 364.14 167.008 364.14Z" fill="url(#paint5_linear_0_7)"/>
<mask id="mask0_0_7" style="mask-type:luminance" maskUnits="userSpaceOnUse" x="67" y="0" width="284" height="365">
<path fill-rule="evenodd" clip-rule="evenodd" d="M167.008 364.14H322.615C332.845 364.14 352.383 347.182 349.912 337.257L260.367 33.3132C258.831 27.1452 255.276 21.6683 250.268 17.7542C245.259 13.8401 239.086 11.714 232.729 11.7141L93.0881 0.619141C82.215 0.619141 65.5504 21.9437 68.1771 32.495L146.846 348.383C147.966 352.882 150.56 356.878 154.214 359.734C157.867 362.589 162.371 364.14 167.008 364.14Z" fill="white"/>
</mask>
<g mask="url(#mask0_0_7)">
<g style="mix-blend-mode:overlay" filter="url(#filter1_f_0_7)">
<path fill-rule="evenodd" clip-rule="evenodd" d="M283.209 349.492L271.767 371.335L306.092 375.496L316.841 353.653L283.209 349.492Z" fill="white" fill-opacity="0.78"/>
</g>
<g style="mix-blend-mode:overlay" filter="url(#filter2_f_0_7)">
<path fill-rule="evenodd" clip-rule="evenodd" d="M161.859 349.492L150.417 371.335H161.859L175.728 346.718L161.859 349.492Z" fill="white"/>
</g>
<g filter="url(#filter3_f_0_7)">
<path fill-rule="evenodd" clip-rule="evenodd" d="M79.342 50.623L67.9003 72.4663L109.853 272.869L98.4115 61.718L79.342 50.623Z" fill="white" fill-opacity="0.56"/>
</g>
</g>
</g>
<path d="M334.186 351.826H178.579C174.075 351.827 169.7 350.321 166.152 347.547C162.603 344.774 160.084 340.894 158.996 336.523L80.3268 20.6222C79.7355 18.2453 79.6933 15.765 80.2034 13.3694C80.7135 10.9738 81.7625 8.72589 83.2709 6.79613C84.7792 4.86637 86.7073 3.3055 88.9087 2.23191C91.1102 1.15834 93.5272 0.600256 95.9765 0.6C95.9765 0.6 95.9766 0.6 95.9766 0.6H244.302C250.524 0.600932 256.567 2.68279 261.469 6.51428C266.371 10.3458 269.851 15.7068 271.355 21.7441L348.859 333.038C349.414 335.268 349.454 337.594 348.976 339.841C348.498 342.089 347.515 344.197 346.1 346.008C344.686 347.819 342.878 349.284 340.814 350.292C338.749 351.3 336.483 351.824 334.186 351.826Z" fill="url(#paint6_linear_0_7)" stroke="url(#paint7_linear_0_7)" stroke-width="1.2"/>
<path fill-rule="evenodd" clip-rule="evenodd" d="M178.58 345.972C175.382 345.977 172.275 344.909 169.755 342.94C167.235 340.971 165.447 338.214 164.678 335.11L86.0092 19.2085C85.6294 17.6941 85.6002 16.1131 85.9236 14.5858C86.2471 13.0584 86.9147 11.625 87.8758 10.3946C88.8368 9.16426 90.0659 8.16936 91.4694 7.48566C92.873 6.80196 94.414 6.44749 95.9752 6.44924H244.304C249.221 6.44319 253.999 8.08522 257.873 11.113C261.748 14.1409 264.496 18.3798 265.678 23.1527L343.199 334.447C343.54 335.815 343.565 337.242 343.272 338.62C342.978 339.999 342.375 341.293 341.507 342.403C340.639 343.513 339.53 344.412 338.263 345.029C336.996 345.646 335.605 345.967 334.195 345.966L178.58 345.972Z" fill="url(#paint8_linear_0_7)"/>
<g filter="url(#filter4_f_0_7)">
<path fill-rule="evenodd" clip-rule="evenodd" d="M249.417 117.796L146.5 72.5L190 258H322L314 214L249.417 117.796Z" fill="#2567CE" fill-opacity="0.22"/>
</g>
<path fill-rule="evenodd" clip-rule="evenodd" d="M238.561 361.55L239.332 359.625C239.596 358.962 240.053 358.394 240.643 357.994C241.234 357.594 241.931 357.381 242.644 357.381H261.977C262.259 357.381 262.537 357.45 262.787 357.582C263.036 357.714 263.25 357.905 263.408 358.139C263.567 358.373 263.665 358.642 263.696 358.923C263.726 359.203 263.687 359.487 263.583 359.75L262.862 361.55H238.561Z" fill="#263FBC"/>
<path fill-rule="evenodd" clip-rule="evenodd" d="M190.665 362.068L196.199 355.283H195.009L189.475 362.068H190.665Z" fill="#263FBC"/>
<path fill-rule="evenodd" clip-rule="evenodd" d="M193.718 362.068L199.248 355.283H198.059L192.528 362.068H193.718Z" fill="#263FBC"/>
<path fill-rule="evenodd" clip-rule="evenodd" d="M196.769 362.068L202.303 355.283H201.113L195.579 362.068H196.769Z" fill="#263FBC"/>
<path fill-rule="evenodd" clip-rule="evenodd" d="M199.824 362.068L205.355 355.283H204.165L198.634 362.068H199.824Z" fill="#263FBC"/>
<path fill-rule="evenodd" clip-rule="evenodd" d="M202.874 362.068L208.408 355.283H207.218L201.684 362.068H202.874Z" fill="#263FBC"/>
<path fill-rule="evenodd" clip-rule="evenodd" d="M205.928 362.068L211.459 355.283H210.269L204.738 362.068H205.928Z" fill="#263FBC"/>
<path fill-rule="evenodd" clip-rule="evenodd" d="M208.978 362.068L214.512 355.283H213.322L207.788 362.068H208.978Z" fill="#263FBC"/>
<path fill-rule="evenodd" clip-rule="evenodd" d="M212.032 362.068L217.566 355.283H216.376L210.845 362.068H212.032Z" fill="#263FBC"/>
<path fill-rule="evenodd" clip-rule="evenodd" d="M215.086 362.068L220.62 355.283H219.43L213.896 362.068H215.086Z" fill="#263FBC"/>
<path fill-rule="evenodd" clip-rule="evenodd" d="M283.821 362.068L289.355 355.283H288.165L282.631 362.068H283.821Z" fill="#263FBC"/>
<path fill-rule="evenodd" clip-rule="evenodd" d="M286.874 362.068L292.404 355.283H291.214L285.684 362.068H286.874Z" fill="#263FBC"/>
<path fill-rule="evenodd" clip-rule="evenodd" d="M289.925 362.068L295.459 355.283H294.269L288.735 362.068H289.925Z" fill="#263FBC"/>
<path fill-rule="evenodd" clip-rule="evenodd" d="M292.981 362.068L298.512 355.283H297.322L291.792 362.068H292.981Z" fill="#263FBC"/>
<path fill-rule="evenodd" clip-rule="evenodd" d="M296.032 362.068L301.566 355.283H300.376L294.842 362.068H296.032Z" fill="#263FBC"/>
<path fill-rule="evenodd" clip-rule="evenodd" d="M299.085 362.068L304.615 355.283H303.426L297.895 362.068H299.085Z" fill="#263FBC"/>
<path fill-rule="evenodd" clip-rule="evenodd" d="M302.134 362.068L307.668 355.283H306.478L300.944 362.068H302.134Z" fill="#263FBC"/>
<path fill-rule="evenodd" clip-rule="evenodd" d="M305.19 362.068L310.72 355.283H309.531L303.997 362.068H305.19Z" fill="#263FBC"/>
<path fill-rule="evenodd" clip-rule="evenodd" d="M308.24 362.068L313.774 355.283H312.584L307.05 362.068H308.24Z" fill="#263FBC"/>
<path fill-rule="evenodd" clip-rule="evenodd" d="M229.693 52.1406H114.854C112.865 52.1406 110.793 50.1085 110.249 47.6284C109.701 45.1483 110.889 43.1162 112.868 43.1162H227.707C229.693 43.1162 231.765 45.1483 232.312 47.6284C232.857 50.1005 231.694 52.1406 229.693 52.1406Z" fill="#A6C1FF" fill-opacity="0.31"/>
<path fill-rule="evenodd" clip-rule="evenodd" d="M233.724 82.2227H119.827C117.857 82.2227 115.799 80.1937 115.259 77.7125C114.716 75.2272 115.895 73.1982 117.857 73.1982H231.755C233.727 73.1982 235.782 75.2272 236.322 77.7125C236.865 80.1937 235.696 82.2227 233.724 82.2227Z" fill="#A6C1FF" fill-opacity="0.31"/>
<path fill-rule="evenodd" clip-rule="evenodd" d="M239.718 113.305H124.879C122.893 113.305 120.821 111.273 120.274 108.792C119.729 106.312 120.914 104.28 122.893 104.28H237.739C239.724 104.28 241.796 106.312 242.341 108.792C242.882 111.273 241.703 113.305 239.718 113.305Z" fill="#A6C1FF" fill-opacity="0.31"/>
<path fill-rule="evenodd" clip-rule="evenodd" d="M414.454 222.936L403.495 235.972C402.619 237.747 401.33 239.286 399.736 240.46L399.678 240.516H399.656C397.565 242.05 395.038 242.874 392.444 242.868H213.477C210.151 242.866 206.924 241.742 204.316 239.678C201.709 237.615 199.874 234.732 199.109 231.495L167.932 99.8953L160.379 68.0472C160.077 66.783 160.062 65.4675 160.333 64.1964C160.604 62.9253 161.155 61.7307 161.946 60.6996C162.174 60.3935 162.42 60.1017 162.684 59.8258L175.665 44.6562L177.166 45.7657L192.679 57.2047H352.43C355.73 57.2038 358.934 58.3169 361.523 60.3638C364.112 62.4106 365.935 65.2712 366.696 68.4827L400.893 212.798L414.454 222.936Z" fill="url(#paint9_linear_0_7)"/>
<path d="M403.895 228.336H403.894H224.927C221.735 228.336 218.636 227.259 216.133 225.279C213.629 223.299 211.867 220.532 211.132 217.426L211.132 217.425L179.705 84.8379L179.705 84.8377L172.402 53.9891C172.402 53.989 172.402 53.9888 172.402 53.9887C172.118 52.7826 172.11 51.528 172.38 50.3185C172.649 49.1089 173.188 47.9758 173.956 47.0038C174.725 46.0318 175.703 45.2461 176.818 44.7054C177.933 44.1647 179.156 43.883 180.395 43.8813L363.88 43.8813C367.045 43.88 370.116 44.9475 372.598 46.9107C375.079 48.8739 376.824 51.6176 377.551 54.6971L377.551 54.6977L384.763 85.1145L415.293 213.935C415.293 213.935 415.293 213.935 415.293 213.935C415.7 215.655 415.712 217.444 415.328 219.169C414.945 220.893 414.176 222.509 413.08 223.895C411.983 225.28 410.587 226.399 408.997 227.169C407.406 227.938 405.662 228.337 403.895 228.336Z" fill="url(#paint10_linear_0_7)" stroke="url(#paint11_linear_0_7)" stroke-width="1.2"/>
<path fill-rule="evenodd" clip-rule="evenodd" d="M179.118 84.9726L167.921 99.8953L160.379 68.0472C160.077 66.783 160.062 65.4675 160.333 64.1964C160.604 62.9253 161.155 61.7307 161.946 60.6996C162.174 60.3935 162.42 60.1017 162.684 59.8258L175.665 44.6562L177.166 45.7657L179.118 84.9726Z" fill="url(#paint12_linear_0_7)"/>
<path fill-rule="evenodd" clip-rule="evenodd" d="M385.347 84.9761H179.121L171.818 54.1266C171.513 52.8324 171.505 51.486 171.794 50.1882C172.083 48.8903 172.661 47.6745 173.486 46.6316C174.311 45.5887 175.36 44.7457 176.557 44.1655C177.753 43.5853 179.065 43.2831 180.395 43.2813H363.881C367.18 43.28 370.383 44.3931 372.97 46.4402C375.557 48.4873 377.377 51.3483 378.135 54.5593L385.347 84.9761Z" fill="url(#paint13_linear_0_7)"/>
<g filter="url(#filter5_b_0_7)">
<path fill-rule="evenodd" clip-rule="evenodd" d="M385.344 84.9746H179.12L237.848 195.42C240.799 200.967 247.72 204.889 254.568 204.889H433.535C441.485 204.889 445.818 198.712 442.411 192.28L385.344 84.9746Z" fill="url(#paint14_linear_0_7)"/>
<path d="M179.952 85.4746L238.289 195.185C238.289 195.185 238.289 195.185 238.289 195.185C241.145 200.552 247.884 204.389 254.568 204.389H433.535C437.384 204.389 440.284 202.897 441.823 200.709C443.353 198.532 443.595 195.584 441.97 192.514L179.952 85.4746ZM179.952 85.4746H385.044L441.97 192.514L179.952 85.4746Z" stroke="url(#paint15_linear_0_7)"/>
</g>
<path fill-rule="evenodd" clip-rule="evenodd" d="M246.226 106.784H226.475C226.361 106.784 226.249 106.814 226.15 106.87C226.051 106.926 225.969 107.006 225.91 107.104C225.852 107.201 225.82 107.312 225.817 107.426C225.814 107.54 225.841 107.652 225.895 107.752L231.592 118.467C231.776 118.773 232.035 119.025 232.345 119.201C232.655 119.376 233.006 119.469 233.362 119.469H252.295C253.128 119.469 253.596 118.817 253.233 118.134L247.649 107.639C247.512 107.38 247.308 107.164 247.057 107.013C246.806 106.863 246.519 106.784 246.226 106.784ZM255.298 123.171H235.549C235.435 123.17 235.323 123.199 235.224 123.255C235.124 123.311 235.041 123.392 234.982 123.489C234.924 123.587 234.891 123.698 234.888 123.812C234.886 123.926 234.912 124.039 234.966 124.139L240.664 134.857C240.847 135.162 241.107 135.414 241.417 135.59C241.727 135.765 242.077 135.858 242.433 135.858H261.367C262.199 135.858 262.668 135.203 262.304 134.524L256.724 124.025C256.586 123.767 256.38 123.551 256.129 123.4C255.878 123.25 255.591 123.171 255.298 123.171ZM244.617 139.541H264.367C264.659 139.541 264.947 139.621 265.198 139.772C265.449 139.923 265.655 140.139 265.792 140.398L271.373 150.894C271.736 151.576 271.268 152.228 270.435 152.228H251.502C251.146 152.228 250.795 152.136 250.485 151.96C250.175 151.785 249.916 151.532 249.732 151.227L244.035 140.509C243.981 140.409 243.954 140.296 243.957 140.182C243.96 140.068 243.992 139.957 244.051 139.859C244.11 139.762 244.193 139.681 244.292 139.625C244.391 139.569 244.504 139.54 244.617 139.541ZM273.428 155.91H253.679C253.565 155.91 253.453 155.939 253.354 155.995C253.254 156.05 253.171 156.131 253.112 156.229C253.054 156.326 253.021 156.438 253.019 156.551C253.016 156.665 253.043 156.778 253.096 156.878L258.794 167.593C258.977 167.899 259.236 168.152 259.546 168.328C259.856 168.504 260.207 168.597 260.563 168.597H279.497C280.329 168.597 280.798 167.943 280.434 167.26L274.854 156.765C274.716 156.506 274.51 156.29 274.259 156.14C274.008 155.989 273.721 155.91 273.428 155.91ZM262.758 172.278H282.507C282.801 172.278 283.089 172.357 283.341 172.507C283.593 172.658 283.799 172.874 283.938 173.133L289.519 183.631C289.882 184.311 289.414 184.965 288.581 184.965H269.648C269.292 184.965 268.942 184.873 268.632 184.697C268.322 184.522 268.062 184.269 267.878 183.964L262.175 173.246C262.122 173.146 262.095 173.033 262.098 172.919C262.1 172.806 262.133 172.694 262.191 172.597C262.25 172.499 262.333 172.419 262.433 172.363C262.532 172.307 262.644 172.278 262.758 172.278Z" fill="url(#paint16_linear_0_7)"/>
<path fill-rule="evenodd" clip-rule="evenodd" d="M363.495 116.12V116.084C363.495 115.896 363.462 115.707 363.448 115.529C363.434 115.352 363.428 115.158 363.423 114.975C363.423 114.93 363.423 114.886 363.423 114.841C363.423 114.797 363.423 114.769 363.423 114.733C363.423 114.622 363.423 114.511 363.423 114.409C363.423 114.217 363.423 114.032 363.442 113.854C363.442 113.779 363.442 113.713 363.462 113.638C363.481 113.563 363.462 113.541 363.476 113.496C363.489 113.452 363.476 113.349 363.495 113.274C363.517 113.066 363.548 112.864 363.584 112.667C363.584 112.609 363.609 112.561 363.617 112.509C363.625 112.456 363.642 112.39 363.656 112.328C363.67 112.267 363.692 112.126 363.72 112.034C363.772 111.838 363.825 111.657 363.886 111.48C363.897 111.447 363.906 111.414 363.911 111.38C363.913 111.375 363.914 111.37 363.914 111.365C363.914 111.359 363.913 111.354 363.911 111.349C363.961 111.205 364.019 111.072 364.077 110.919C364.079 110.91 364.084 110.901 364.091 110.894C364.141 110.764 364.2 110.634 364.261 110.509C364.261 110.509 364.261 110.492 364.261 110.487C364.261 110.481 364.305 110.415 364.324 110.376C364.439 110.155 364.568 109.942 364.71 109.738C364.758 109.662 364.811 109.59 364.868 109.521C364.988 109.359 365.115 109.202 365.251 109.053C365.309 108.986 365.362 108.931 365.423 108.872C365.615 108.673 365.821 108.488 366.039 108.318L462.323 35.873C462.309 35.8846 462.296 35.8976 462.285 35.9119C462.196 35.974 462.113 36.0426 462.035 36.1171C462.035 36.1338 462.002 36.1421 461.988 36.1587C461.921 36.217 461.849 36.2919 461.783 36.3585C461.716 36.425 461.663 36.4805 461.611 36.5387C461.558 36.597 461.472 36.6858 461.408 36.7662C461.344 36.8466 461.278 36.9298 461.222 37.0075C461.153 37.0879 461.091 37.1742 461.036 37.2655C460.981 37.3515 460.923 37.4458 460.867 37.5428C460.812 37.6399 460.756 37.7231 460.706 37.8202C460.656 37.9173 460.654 37.9228 460.62 37.9783C460.513 38.1881 460.421 38.4049 460.343 38.6274C460.237 38.8984 460.15 39.1764 460.082 39.4595C460.043 39.5815 460.021 39.7091 459.991 39.8367C459.987 39.8522 459.987 39.8684 459.991 39.8839C459.978 39.9258 459.968 39.9684 459.96 40.0115C459.96 40.042 459.96 40.0697 459.96 40.1002C459.891 40.4671 459.841 40.8375 459.81 41.2097C459.81 41.3651 459.794 41.5204 459.788 41.6757C459.783 41.831 459.788 42.0363 459.788 42.2138C459.788 42.2277 459.788 42.2499 459.788 42.2721C459.784 42.2969 459.784 42.3222 459.788 42.347C459.788 42.4551 459.788 42.5578 459.802 42.6687C459.802 42.9821 459.835 43.2984 459.871 43.6257C459.975 44.5676 460.154 45.4998 460.407 46.4133V46.4327C460.407 46.4327 460.407 46.4493 460.407 46.4549C460.669 47.3822 460.988 48.2928 461.361 49.1815C461.361 49.2092 461.383 49.2314 461.392 49.2591C461.444 49.3867 461.5 49.5032 461.558 49.6225C461.616 49.7418 461.647 49.8277 461.694 49.9248C461.799 50.1467 461.899 50.3714 462.01 50.5878C462.509 51.5806 463.064 52.5437 463.674 53.4724C463.893 53.7942 464.11 54.0993 464.337 54.4127C464.397 54.5102 464.463 54.6029 464.537 54.6901C464.856 55.1256 465.192 55.5527 465.538 55.9716C466.53 57.1788 467.63 58.293 468.825 59.3001C468.98 59.4388 469.133 59.5774 469.294 59.6912C469.505 59.8659 469.729 60.0323 469.946 60.1932C470.306 60.454 470.664 60.7091 471.03 60.9421C471.846 61.4843 472.707 61.9548 473.604 62.3484C473.79 62.4316 473.968 62.501 474.142 62.5703C474.42 62.6785 474.675 62.7756 474.933 62.8477L475.21 62.9309C475.301 62.9633 475.393 62.9893 475.488 63.0086L475.737 63.0696C475.758 63.0782 475.781 63.0828 475.804 63.0835L476.04 63.1473L476.212 63.1778C476.348 63.2083 476.489 63.236 476.617 63.2527C476.678 63.2527 476.739 63.2748 476.791 63.2832C476.902 63.3026 477.008 63.3192 477.119 63.3303L477.318 63.3525L477.623 63.3775H477.757C477.791 63.3817 477.825 63.3817 477.859 63.3775C477.956 63.3775 478.045 63.3775 478.137 63.3775C478.205 63.3819 478.274 63.3819 478.342 63.3775C478.367 63.3816 478.392 63.3816 478.417 63.3775C478.489 63.3775 478.561 63.3775 478.628 63.3775C478.694 63.3775 478.833 63.3636 478.927 63.3525C479.183 63.331 479.437 63.2902 479.687 63.2305C479.868 63.1947 480.047 63.1484 480.222 63.0918C480.24 63.0898 480.257 63.0851 480.272 63.0779L480.328 63.0585C480.524 62.9912 480.717 62.9134 480.905 62.8255C480.933 62.8235 480.96 62.8129 480.982 62.795C481.019 62.7756 481.06 62.7645 481.096 62.7451C481.139 62.7261 481.181 62.7039 481.221 62.6785C481.326 62.623 481.429 62.5675 481.526 62.5065C481.622 62.4525 481.714 62.3933 481.803 62.329C481.854 62.3002 481.902 62.2677 481.948 62.2319L385.596 134.738C385.466 134.832 385.319 134.921 385.183 135.015C385.14 135.045 385.093 135.07 385.044 135.09L384.767 135.256C384.747 135.256 384.734 135.273 384.72 135.276L384.656 135.303C384.425 135.411 384.188 135.503 383.946 135.581L383.896 135.595C383.724 135.65 383.546 135.692 383.366 135.733C383.338 135.733 383.316 135.747 383.288 135.75C383.253 135.759 383.217 135.766 383.18 135.769C383.055 135.789 382.933 135.811 382.817 135.822C382.774 135.834 382.731 135.841 382.687 135.844H382.606L382.309 135.872C382.253 135.867 382.196 135.867 382.14 135.872H382.068C381.988 135.872 381.899 135.872 381.816 135.872C381.732 135.872 381.685 135.872 381.627 135.872C381.597 135.869 381.568 135.869 381.538 135.872L381.3 135.853C381.236 135.857 381.172 135.857 381.108 135.853H380.997L380.789 135.83C380.732 135.821 380.675 135.815 380.617 135.814L380.459 135.786L380.243 135.75L380.129 135.728L379.882 135.681C379.821 135.664 379.769 135.656 379.708 135.642H379.649C379.483 135.6 379.322 135.559 379.156 135.511C378.989 135.464 378.837 135.423 378.676 135.367L378.601 135.345L378.426 135.284L378.179 135.201C378.126 135.184 378.079 135.159 378.027 135.137C377.959 135.116 377.892 135.091 377.827 135.062C377.774 135.045 377.727 135.023 377.68 135.004C377.55 134.954 377.419 134.893 377.289 134.843C377.248 134.823 377.207 134.805 377.164 134.79L376.609 134.527C376.432 134.444 376.26 134.352 376.079 134.249L376.01 134.213L375.941 134.177C375.808 134.102 375.663 134.03 375.539 133.947C375.35 133.844 375.17 133.731 374.984 133.62C374.92 133.581 374.856 133.537 374.792 133.5C374.755 133.47 374.715 133.442 374.673 133.417C374.587 133.362 374.501 133.312 374.421 133.254C374.229 133.129 374.038 132.996 373.866 132.86C373.777 132.796 373.688 132.732 373.589 132.663C373.55 132.63 373.503 132.605 373.461 132.574C373.419 132.544 373.35 132.491 373.295 132.444C373.109 132.302 372.931 132.166 372.74 132.011L372.382 131.72C372.352 131.695 372.327 131.667 372.293 131.642C372.26 131.617 372.238 131.595 372.213 131.57C372.041 131.426 371.872 131.276 371.705 131.118C371.539 130.96 371.364 130.81 371.198 130.644C371.034 130.485 370.868 130.319 370.712 130.158C370.513 129.953 370.313 129.748 370.121 129.54C369.844 129.226 369.55 128.904 369.273 128.574C369.242 128.54 369.213 128.504 369.187 128.466C368.993 128.239 368.818 128 368.632 127.77C368.51 127.606 368.377 127.459 368.263 127.296C368.23 127.262 368.21 127.221 368.177 127.187C368.108 127.093 368.047 126.996 367.977 126.91C367.844 126.719 367.7 126.536 367.575 126.355C367.45 126.175 367.373 126.056 367.276 125.903L367.198 125.795L367.145 125.703C367.02 125.512 366.896 125.321 366.779 125.127C366.663 124.932 366.563 124.774 366.463 124.597C366.443 124.569 366.435 124.547 366.419 124.519C366.409 124.498 366.396 124.477 366.382 124.458C366.308 124.325 366.235 124.181 366.161 124.07C366.069 123.889 365.966 123.709 365.883 123.529C365.825 123.415 365.769 123.299 365.706 123.179C365.706 123.152 365.675 123.124 365.667 123.096C365.659 123.068 365.628 123.018 365.609 122.985C365.514 122.797 365.428 122.608 365.331 122.417L365.07 121.842L365.04 121.765L365.009 121.69C364.948 121.54 364.882 121.393 364.829 121.252C364.749 121.055 364.666 120.852 364.593 120.652C364.563 120.569 364.538 120.483 364.507 120.397C364.507 120.356 364.474 120.314 364.463 120.27C364.452 120.225 364.41 120.137 364.388 120.064C364.322 119.868 364.258 119.668 364.2 119.476C364.141 119.285 364.091 119.113 364.044 118.922V118.908C364.044 118.908 364.044 118.894 364.044 118.888C363.991 118.694 363.942 118.508 363.9 118.314C363.858 118.12 363.814 117.943 363.772 117.759C363.756 117.696 363.75 117.632 363.736 117.565C363.722 117.499 363.72 117.493 363.717 117.457C363.7 117.371 363.681 117.285 363.667 117.205C363.631 117.019 363.603 116.83 363.575 116.65C363.548 116.47 363.514 116.289 363.495 116.12Z" fill="url(#paint17_linear_0_7)"/>
<path fill-rule="evenodd" clip-rule="evenodd" d="M473.605 62.3332C466.801 59.3459 460.643 50.9609 459.856 43.616C459.068 36.2712 463.941 32.7235 470.745 35.7109C477.549 38.6982 483.701 47.0832 484.489 54.4336C485.277 61.784 480.409 65.3206 473.605 62.3332Z" fill="#2F655F"/>
<path fill-rule="evenodd" clip-rule="evenodd" d="M363.495 116.12V116.084C363.495 115.896 363.462 115.707 363.448 115.529C363.434 115.352 363.428 115.158 363.423 114.975C363.423 114.93 363.423 114.886 363.423 114.841C363.423 114.797 363.423 114.769 363.423 114.733C363.423 114.622 363.423 114.511 363.423 114.409C363.423 114.217 363.423 114.032 363.442 113.854C363.442 113.779 363.442 113.713 363.462 113.638C363.481 113.563 363.462 113.541 363.476 113.496C363.489 113.452 363.476 113.349 363.495 113.274C363.517 113.066 363.548 112.864 363.584 112.667C363.584 112.609 363.609 112.561 363.617 112.509C363.625 112.456 363.642 112.39 363.656 112.328C363.67 112.267 363.692 112.126 363.72 112.034C363.772 111.838 363.825 111.657 363.886 111.48C363.897 111.447 363.906 111.414 363.911 111.38C363.913 111.375 363.914 111.37 363.914 111.365C363.914 111.359 363.913 111.354 363.911 111.349C363.961 111.205 364.019 111.072 364.077 110.919C364.079 110.91 364.084 110.901 364.091 110.894C364.141 110.764 364.2 110.634 364.261 110.509C364.261 110.509 364.261 110.492 364.261 110.487C364.261 110.481 364.305 110.415 364.324 110.376C364.439 110.155 364.568 109.942 364.71 109.738C364.758 109.662 364.811 109.59 364.868 109.521C364.988 109.359 365.115 109.202 365.251 109.053C365.309 108.986 365.362 108.931 365.423 108.872C365.615 108.673 365.821 108.488 366.039 108.318L462.323 35.873C462.309 35.8846 462.296 35.8976 462.285 35.9119C462.196 35.974 462.113 36.0426 462.035 36.1171C462.035 36.1338 462.002 36.1421 461.988 36.1587C461.921 36.217 461.849 36.2919 461.783 36.3585C461.716 36.425 461.663 36.4805 461.611 36.5387C461.558 36.597 461.472 36.6858 461.408 36.7662C461.344 36.8466 461.278 36.9298 461.222 37.0075C461.153 37.0879 461.091 37.1742 461.036 37.2655C460.981 37.3515 460.923 37.4458 460.867 37.5428C460.812 37.6399 460.756 37.7231 460.706 37.8202C460.656 37.9173 460.654 37.9228 460.62 37.9783C460.513 38.1881 460.421 38.4049 460.343 38.6274C460.237 38.8984 460.15 39.1764 460.082 39.4595C460.043 39.5815 460.021 39.7091 459.991 39.8367C459.987 39.8522 459.987 39.8684 459.991 39.8839C459.978 39.9258 459.968 39.9684 459.96 40.0115C459.96 40.042 459.96 40.0697 459.96 40.1002C459.891 40.4671 459.841 40.8375 459.81 41.2097C459.81 41.3651 459.794 41.5204 459.788 41.6757C459.783 41.831 459.788 42.0363 459.788 42.2138C459.788 42.2277 459.788 42.2499 459.788 42.2721C459.784 42.2969 459.784 42.3222 459.788 42.347C459.788 42.4551 459.788 42.5578 459.802 42.6687C459.802 42.9821 459.835 43.2984 459.871 43.6257C459.975 44.5676 460.154 45.4998 460.407 46.4133V46.4327C460.407 46.4327 460.407 46.4493 460.407 46.4549C460.669 47.3822 460.988 48.2928 461.361 49.1815C461.361 49.2092 461.383 49.2314 461.392 49.2591C461.444 49.3867 461.5 49.5032 461.558 49.6225C461.616 49.7418 461.647 49.8277 461.694 49.9248C461.799 50.1467 461.899 50.3714 462.01 50.5878C462.509 51.5806 463.064 52.5437 463.674 53.4724C463.893 53.7942 464.11 54.0993 464.337 54.4127C464.397 54.5102 464.463 54.6029 464.537 54.6901C464.856 55.1256 465.192 55.5527 465.538 55.9716C466.53 57.1788 467.63 58.293 468.825 59.3001C468.98 59.4388 469.133 59.5774 469.294 59.6912C469.505 59.8659 469.729 60.0323 469.946 60.1932C470.306 60.454 470.664 60.7091 471.03 60.9421C471.846 61.4843 472.707 61.9548 473.604 62.3484C473.79 62.4316 473.968 62.501 474.142 62.5703C474.42 62.6785 474.675 62.7756 474.933 62.8477L475.21 62.9309C475.301 62.9633 475.393 62.9893 475.488 63.0086L475.737 63.0696C475.758 63.0782 475.781 63.0828 475.804 63.0835L476.04 63.1473L476.212 63.1778C476.348 63.2083 476.489 63.236 476.617 63.2527C476.678 63.2527 476.739 63.2748 476.791 63.2832C476.902 63.3026 477.008 63.3192 477.119 63.3303L477.318 63.3525L477.623 63.3775H477.757C477.791 63.3817 477.825 63.3817 477.859 63.3775C477.956 63.3775 478.045 63.3775 478.137 63.3775C478.205 63.3819 478.274 63.3819 478.342 63.3775C478.367 63.3816 478.392 63.3816 478.417 63.3775C478.489 63.3775 478.561 63.3775 478.628 63.3775C478.694 63.3775 478.833 63.3636 478.927 63.3525C479.183 63.331 479.437 63.2902 479.687 63.2305C479.868 63.1947 480.047 63.1484 480.222 63.0918C480.24 63.0898 480.257 63.0851 480.272 63.0779L480.328 63.0585C480.524 62.9912 480.717 62.9134 480.905 62.8255C480.933 62.8235 480.96 62.8129 480.982 62.795C481.019 62.7756 481.06 62.7645 481.096 62.7451C481.139 62.7261 481.181 62.7039 481.221 62.6785C481.326 62.623 481.429 62.5675 481.526 62.5065C481.622 62.4525 481.714 62.3933 481.803 62.329C481.854 62.3002 481.902 62.2677 481.948 62.2319L385.596 134.738C385.466 134.832 385.319 134.921 385.183 135.015C385.14 135.045 385.093 135.07 385.044 135.09L384.767 135.256C384.747 135.256 384.734 135.273 384.72 135.276L384.656 135.303C384.425 135.411 384.188 135.503 383.946 135.581L383.896 135.595C383.724 135.65 383.546 135.692 383.366 135.733C383.338 135.733 383.316 135.747 383.288 135.75C383.253 135.759 383.217 135.766 383.18 135.769C383.055 135.789 382.933 135.811 382.817 135.822C382.774 135.834 382.731 135.841 382.687 135.844H382.606L382.309 135.872C382.253 135.867 382.196 135.867 382.14 135.872H382.068C381.988 135.872 381.899 135.872 381.816 135.872C381.732 135.872 381.685 135.872 381.627 135.872C381.597 135.869 381.568 135.869 381.538 135.872L381.3 135.853C381.236 135.857 381.172 135.857 381.108 135.853H380.997L380.789 135.83C380.732 135.821 380.675 135.815 380.617 135.814L380.459 135.786L380.243 135.75L380.129 135.728L379.882 135.681C379.821 135.664 379.769 135.656 379.708 135.642H379.649C379.483 135.6 379.322 135.559 379.156 135.511C378.989 135.464 378.837 135.423 378.676 135.367L378.601 135.345L378.426 135.284L378.179 135.201C378.126 135.184 378.079 135.159 378.027 135.137C377.959 135.116 377.892 135.091 377.827 135.062C377.774 135.045 377.727 135.023 377.68 135.004C377.55 134.954 377.419 134.893 377.289 134.843C377.248 134.823 377.207 134.805 377.164 134.79L376.609 134.527C376.432 134.444 376.26 134.352 376.079 134.249L376.01 134.213L375.941 134.177C375.808 134.102 375.663 134.03 375.539 133.947C375.35 133.844 375.17 133.731 374.984 133.62C374.92 133.581 374.856 133.537 374.792 133.5C374.755 133.47 374.715 133.442 374.673 133.417C374.587 133.362 374.501 133.312 374.421 133.254C374.229 133.129 374.038 132.996 373.866 132.86C373.777 132.796 373.688 132.732 373.589 132.663C373.55 132.63 373.503 132.605 373.461 132.574C373.419 132.544 373.35 132.491 373.295 132.444C373.109 132.302 372.931 132.166 372.74 132.011L372.382 131.72C372.352 131.695 372.327 131.667 372.293 131.642C372.26 131.617 372.238 131.595 372.213 131.57C372.041 131.426 371.872 131.276 371.705 131.118C371.539 130.96 371.364 130.81 371.198 130.644C371.034 130.485 370.868 130.319 370.712 130.158C370.513 129.953 370.313 129.748 370.121 129.54C369.844 129.226 369.55 128.904 369.273 128.574C369.242 128.54 369.213 128.504 369.187 128.466C368.993 128.239 368.818 128 368.632 127.77C368.51 127.606 368.377 127.459 368.263 127.296C368.23 127.262 368.21 127.221 368.177 127.187C368.108 127.093 368.047 126.996 367.977 126.91C367.844 126.719 367.7 126.536 367.575 126.355C367.45 126.175 367.373 126.056 367.276 125.903L367.198 125.795L367.145 125.703C367.02 125.512 366.896 125.321 366.779 125.127C366.663 124.932 366.563 124.774 366.463 124.597C366.443 124.569 366.435 124.547 366.419 124.519C366.409 124.498 366.396 124.477 366.382 124.458C366.308 124.325 366.235 124.181 366.161 124.07C366.069 123.889 365.966 123.709 365.883 123.529C365.825 123.415 365.769 123.299 365.706 123.179C365.706 123.152 365.675 123.124 365.667 123.096C365.659 123.068 365.628 123.018 365.609 122.985C365.514 122.797 365.428 122.608 365.331 122.417L365.07 121.842L365.04 121.765L365.009 121.69C364.948 121.54 364.882 121.393 364.829 121.252C364.749 121.055 364.666 120.852 364.593 120.652C364.563 120.569 364.538 120.483 364.507 120.397C364.507 120.356 364.474 120.314 364.463 120.27C364.452 120.225 364.41 120.137 364.388 120.064C364.322 119.868 364.258 119.668 364.2 119.476C364.141 119.285 364.091 119.113 364.044 118.922V118.908C364.044 118.908 364.044 118.894 364.044 118.888C363.991 118.694 363.942 118.508 363.9 118.314C363.858 118.12 363.814 117.943 363.772 117.759C363.756 117.696 363.75 117.632 363.736 117.565C363.722 117.499 363.72 117.493 363.717 117.457C363.7 117.371 363.681 117.285 363.667 117.205C363.631 117.019 363.603 116.83 363.575 116.65C363.548 116.47 363.514 116.289 363.495 116.12Z" fill="url(#paint18_linear_0_7)"/>
<mask id="mask1_0_7" style="mask-type:luminance" maskUnits="userSpaceOnUse" x="363" y="35" width="119" height="101">
<path fill-rule="evenodd" clip-rule="evenodd" d="M363.495 116.12V116.084C363.495 115.896 363.462 115.707 363.448 115.529C363.434 115.352 363.428 115.158 363.423 114.975C363.423 114.93 363.423 114.886 363.423 114.841C363.423 114.797 363.423 114.769 363.423 114.733C363.423 114.622 363.423 114.511 363.423 114.409C363.423 114.217 363.423 114.032 363.442 113.854C363.442 113.779 363.442 113.713 363.462 113.638C363.481 113.563 363.462 113.541 363.476 113.496C363.489 113.452 363.476 113.349 363.495 113.274C363.517 113.066 363.548 112.864 363.584 112.667C363.584 112.609 363.609 112.561 363.617 112.509C363.625 112.456 363.642 112.39 363.656 112.328C363.67 112.267 363.692 112.126 363.72 112.034C363.772 111.838 363.825 111.657 363.886 111.48C363.897 111.447 363.906 111.414 363.911 111.38C363.913 111.375 363.914 111.37 363.914 111.365C363.914 111.359 363.913 111.354 363.911 111.349C363.961 111.205 364.019 111.072 364.077 110.919C364.079 110.91 364.084 110.901 364.091 110.894C364.141 110.764 364.2 110.634 364.261 110.509C364.261 110.509 364.261 110.492 364.261 110.487C364.261 110.481 364.305 110.415 364.324 110.376C364.439 110.155 364.568 109.942 364.71 109.738C364.758 109.662 364.811 109.59 364.868 109.521C364.988 109.359 365.115 109.202 365.251 109.053C365.309 108.986 365.362 108.931 365.423 108.872C365.615 108.673 365.821 108.488 366.039 108.318L462.323 35.873C462.309 35.8846 462.296 35.8976 462.285 35.9119C462.196 35.974 462.113 36.0426 462.035 36.1171C462.035 36.1338 462.002 36.1421 461.988 36.1587C461.921 36.217 461.849 36.2919 461.783 36.3585C461.716 36.425 461.663 36.4805 461.611 36.5387C461.558 36.597 461.472 36.6858 461.408 36.7662C461.344 36.8466 461.278 36.9298 461.222 37.0075C461.153 37.0879 461.091 37.1742 461.036 37.2655C460.981 37.3515 460.923 37.4458 460.867 37.5428C460.812 37.6399 460.756 37.7231 460.706 37.8202C460.656 37.9173 460.654 37.9228 460.62 37.9783C460.513 38.1881 460.421 38.4049 460.343 38.6274C460.237 38.8984 460.15 39.1764 460.082 39.4595C460.043 39.5815 460.021 39.7091 459.991 39.8367C459.987 39.8522 459.987 39.8684 459.991 39.8839C459.978 39.9258 459.968 39.9684 459.96 40.0115C459.96 40.042 459.96 40.0697 459.96 40.1002C459.891 40.4671 459.841 40.8375 459.81 41.2097C459.81 41.3651 459.794 41.5204 459.788 41.6757C459.783 41.831 459.788 42.0363 459.788 42.2138C459.788 42.2277 459.788 42.2499 459.788 42.2721C459.784 42.2969 459.784 42.3222 459.788 42.347C459.788 42.4551 459.788 42.5578 459.802 42.6687C459.802 42.9821 459.835 43.2984 459.871 43.6257C459.975 44.5676 460.154 45.4998 460.407 46.4133V46.4327C460.407 46.4327 460.407 46.4493 460.407 46.4549C460.669 47.3822 460.988 48.2928 461.361 49.1815C461.361 49.2092 461.383 49.2314 461.392 49.2591C461.444 49.3867 461.5 49.5032 461.558 49.6225C461.616 49.7418 461.647 49.8277 461.694 49.9248C461.799 50.1467 461.899 50.3714 462.01 50.5878C462.509 51.5806 463.064 52.5437 463.674 53.4724C463.893 53.7942 464.11 54.0993 464.337 54.4127C464.397 54.5102 464.463 54.6029 464.537 54.6901C464.856 55.1256 465.192 55.5527 465.538 55.9716C466.53 57.1788 467.63 58.293 468.825 59.3001C468.98 59.4388 469.133 59.5774 469.294 59.6912C469.505 59.8659 469.729 60.0323 469.946 60.1932C470.306 60.454 470.664 60.7091 471.03 60.9421C471.846 61.4843 472.707 61.9548 473.604 62.3484C473.79 62.4316 473.968 62.501 474.142 62.5703C474.42 62.6785 474.675 62.7756 474.933 62.8477L475.21 62.9309C475.301 62.9633 475.393 62.9893 475.488 63.0086L475.737 63.0696C475.758 63.0782 475.781 63.0828 475.804 63.0835L476.04 63.1473L476.212 63.1778C476.348 63.2083 476.489 63.236 476.617 63.2527C476.678 63.2527 476.739 63.2748 476.791 63.2832C476.902 63.3026 477.008 63.3192 477.119 63.3303L477.318 63.3525L477.623 63.3775H477.757C477.791 63.3817 477.825 63.3817 477.859 63.3775C477.956 63.3775 478.045 63.3775 478.137 63.3775C478.205 63.3819 478.274 63.3819 478.342 63.3775C478.367 63.3816 478.392 63.3816 478.417 63.3775C478.489 63.3775 478.561 63.3775 478.628 63.3775C478.694 63.3775 478.833 63.3636 478.927 63.3525C479.183 63.331 479.437 63.2902 479.687 63.2305C479.868 63.1947 480.047 63.1484 480.222 63.0918C480.24 63.0898 480.257 63.0851 480.272 63.0779L480.328 63.0585C480.524 62.9912 480.717 62.9134 480.905 62.8255C480.933 62.8235 480.96 62.8129 480.982 62.795C481.019 62.7756 481.06 62.7645 481.096 62.7451C481.139 62.7261 481.181 62.7039 481.221 62.6785C481.326 62.623 481.429 62.5675 481.526 62.5065C481.622 62.4525 481.714 62.3933 481.803 62.329C481.854 62.3002 481.902 62.2677 481.948 62.2319L385.596 134.738C385.466 134.832 385.319 134.921 385.183 135.015C385.14 135.045 385.093 135.07 385.044 135.09L384.767 135.256C384.747 135.256 384.734 135.273 384.72 135.276L384.656 135.303C384.425 135.411 384.188 135.503 383.946 135.581L383.896 135.595C383.724 135.65 383.546 135.692 383.366 135.733C383.338 135.733 383.316 135.747 383.288 135.75C383.253 135.759 383.217 135.766 383.18 135.769C383.055 135.789 382.933 135.811 382.817 135.822C382.774 135.834 382.731 135.841 382.687 135.844H382.606L382.309 135.872C382.253 135.867 382.196 135.867 382.14 135.872H382.068C381.988 135.872 381.899 135.872 381.816 135.872C381.732 135.872 381.685 135.872 381.627 135.872C381.597 135.869 381.568 135.869 381.538 135.872L381.3 135.853C381.236 135.857 381.172 135.857 381.108 135.853H380.997L380.789 135.83C380.732 135.821 380.675 135.815 380.617 135.814L380.459 135.786L380.243 135.75L380.129 135.728L379.882 135.681C379.821 135.664 379.769 135.656 379.708 135.642H379.649C379.483 135.6 379.322 135.559 379.156 135.511C378.989 135.464 378.837 135.423 378.676 135.367L378.601 135.345L378.426 135.284L378.179 135.201C378.126 135.184 378.079 135.159 378.027 135.137C377.959 135.116 377.892 135.091 377.827 135.062C377.774 135.045 377.727 135.023 377.68 135.004C377.55 134.954 377.419 134.893 377.289 134.843C377.248 134.823 377.207 134.805 377.164 134.79L376.609 134.527C376.432 134.444 376.26 134.352 376.079 134.249L376.01 134.213L375.941 134.177C375.808 134.102 375.663 134.03 375.539 133.947C375.35 133.844 375.17 133.731 374.984 133.62C374.92 133.581 374.856 133.537 374.792 133.5C374.755 133.47 374.715 133.442 374.673 133.417C374.587 133.362 374.501 133.312 374.421 133.254C374.229 133.129 374.038 132.996 373.866 132.86C373.777 132.796 373.688 132.732 373.589 132.663C373.55 132.63 373.503 132.605 373.461 132.574C373.419 132.544 373.35 132.491 373.295 132.444C373.109 132.302 372.931 132.166 372.74 132.011L372.382 131.72C372.352 131.695 372.327 131.667 372.293 131.642C372.26 131.617 372.238 131.595 372.213 131.57C372.041 131.426 371.872 131.276 371.705 131.118C371.539 130.96 371.364 130.81 371.198 130.644C371.034 130.485 370.868 130.319 370.712 130.158C370.513 129.953 370.313 129.748 370.121 129.54C369.844 129.226 369.55 128.904 369.273 128.574C369.242 128.54 369.213 128.504 369.187 128.466C368.993 128.239 368.818 128 368.632 127.77C368.51 127.606 368.377 127.459 368.263 127.296C368.23 127.262 368.21 127.221 368.177 127.187C368.108 127.093 368.047 126.996 367.977 126.91C367.844 126.719 367.7 126.536 367.575 126.355C367.45 126.175 367.373 126.056 367.276 125.903L367.198 125.795L367.145 125.703C367.02 125.512 366.896 125.321 366.779 125.127C366.663 124.932 366.563 124.774 366.463 124.597C366.443 124.569 366.435 124.547 366.419 124.519C366.409 124.498 366.396 124.477 366.382 124.458C366.308 124.325 366.235 124.181 366.161 124.07C366.069 123.889 365.966 123.709 365.883 123.529C365.825 123.415 365.769 123.299 365.706 123.179C365.706 123.152 365.675 123.124 365.667 123.096C365.659 123.068 365.628 123.018 365.609 122.985C365.514 122.797 365.428 122.608 365.331 122.417L365.07 121.842L365.04 121.765L365.009 121.69C364.948 121.54 364.882 121.393 364.829 121.252C364.749 121.055 364.666 120.852 364.593 120.652C364.563 120.569 364.538 120.483 364.507 120.397C364.507 120.356 364.474 120.314 364.463 120.27C364.452 120.225 364.41 120.137 364.388 120.064C364.322 119.868 364.258 119.668 364.2 119.476C364.141 119.285 364.091 119.113 364.044 118.922V118.908C364.044 118.908 364.044 118.894 364.044 118.888C363.991 118.694 363.942 118.508 363.9 118.314C363.858 118.12 363.814 117.943 363.772 117.759C363.756 117.696 363.75 117.632 363.736 117.565C363.722 117.499 363.72 117.493 363.717 117.457C363.7 117.371 363.681 117.285 363.667 117.205C363.631 117.019 363.603 116.83 363.575 116.65C363.548 116.47 363.514 116.289 363.495 116.12Z" fill="white"/>
</mask>
<g mask="url(#mask1_0_7)">
<g filter="url(#filter6_f_0_7)">
<path fill-rule="evenodd" clip-rule="evenodd" d="M372.752 132.027L445.38 78.2992L438.188 70.1416L366.461 124.579C366.461 124.579 368.106 132.606 372.752 132.027Z" fill="#5C99F8"/>
</g>
</g>
<path fill-rule="evenodd" clip-rule="evenodd" d="M363.494 116.084V116.12C363.513 116.289 363.541 116.461 363.56 116.644C363.58 116.827 363.616 117.013 363.652 117.199C363.652 117.279 363.685 117.365 363.702 117.451C363.702 117.487 363.702 117.523 363.721 117.56C363.741 117.596 363.741 117.69 363.757 117.754C363.799 117.942 363.84 118.128 363.885 118.308C363.929 118.489 363.976 118.688 364.029 118.883C364.029 118.883 364.029 118.896 364.029 118.902V118.916C364.076 119.096 364.126 119.282 364.184 119.471C364.243 119.659 364.306 119.862 364.373 120.059C364.395 120.131 364.426 120.195 364.448 120.264C364.47 120.333 364.478 120.35 364.492 120.392C364.523 120.478 364.548 120.563 364.578 120.647C364.65 120.846 364.733 121.049 364.814 121.246C364.867 121.387 364.933 121.523 364.994 121.684L365.025 121.759L365.055 121.837L365.316 122.411C365.405 122.602 365.491 122.791 365.593 122.979C365.613 123.013 365.632 123.054 365.652 123.09C365.671 123.126 365.679 123.146 365.69 123.174C365.754 123.293 365.81 123.409 365.868 123.523C365.96 123.703 366.062 123.884 366.145 124.064C366.22 124.189 366.292 124.319 366.367 124.452C366.381 124.471 366.393 124.492 366.403 124.513C366.42 124.541 366.428 124.563 366.448 124.591C366.548 124.768 366.656 124.943 366.764 125.121C366.872 125.298 367.005 125.506 367.13 125.698L367.183 125.789L367.26 125.897C367.357 126.05 367.457 126.2 367.56 126.35C367.663 126.499 367.837 126.724 367.962 126.904C368.031 126.993 368.093 127.09 368.162 127.182C368.195 127.215 368.215 127.257 368.248 127.29C368.362 127.453 368.495 127.6 368.617 127.764C368.803 127.994 368.977 128.233 369.172 128.46C369.198 128.498 369.226 128.535 369.257 128.569C369.535 128.899 369.812 129.22 370.106 129.534C370.298 129.742 370.497 129.947 370.697 130.152C370.852 130.313 371.019 130.48 371.182 130.638C371.349 130.804 371.521 130.962 371.69 131.112C371.859 131.262 372.026 131.42 372.198 131.564C372.223 131.589 372.253 131.609 372.278 131.636C372.303 131.664 372.336 131.689 372.367 131.714L372.725 132.005C372.902 132.155 373.08 132.283 373.279 132.438C373.335 132.485 373.39 132.521 373.446 132.568C373.501 132.615 373.535 132.624 373.573 132.657C373.662 132.726 373.751 132.79 373.851 132.854C374.034 132.99 374.225 133.131 374.406 133.248C374.486 133.306 374.572 133.356 374.658 133.411C374.7 133.436 374.739 133.464 374.777 133.495C374.841 133.531 374.905 133.575 374.969 133.614C375.149 133.725 375.329 133.839 375.523 133.941C375.659 134.024 375.801 134.097 375.926 134.171L375.995 134.208L376.064 134.244C376.245 134.341 376.416 134.432 376.594 134.521L377.115 134.773C377.158 134.788 377.2 134.806 377.24 134.826C377.371 134.876 377.501 134.937 377.631 134.987C377.679 135.006 377.726 135.029 377.778 135.045C377.844 135.074 377.91 135.099 377.978 135.12C378.031 135.142 378.078 135.167 378.131 135.184L378.378 135.267L378.552 135.328L378.627 135.35C378.788 135.406 378.949 135.453 379.107 135.495C379.265 135.536 379.434 135.583 379.601 135.625H379.659C379.72 135.625 379.773 135.647 379.834 135.664L380.081 135.711L380.194 135.733L380.411 135.769L380.569 135.797C380.626 135.798 380.684 135.804 380.741 135.814L380.949 135.836H381.06C381.123 135.84 381.187 135.84 381.251 135.836L381.49 135.855C381.519 135.852 381.549 135.852 381.578 135.855C381.637 135.855 381.703 135.855 381.767 135.855C381.831 135.855 381.939 135.855 382.019 135.855H382.092C382.148 135.85 382.205 135.85 382.261 135.855L382.558 135.827H382.638C382.682 135.824 382.726 135.817 382.768 135.805C382.885 135.805 383.007 135.772 383.132 135.753C383.168 135.749 383.204 135.742 383.24 135.733C383.268 135.733 383.29 135.719 383.318 135.716L340.951 147.186L364.073 110.889C364.015 111.027 363.957 111.166 363.907 111.319C363.909 111.323 363.91 111.329 363.91 111.334C363.91 111.339 363.909 111.344 363.907 111.349C363.902 111.383 363.893 111.416 363.882 111.449C363.821 111.632 363.768 111.812 363.716 112.004C363.688 112.095 363.671 112.201 363.652 112.298C363.632 112.395 363.63 112.42 363.613 112.478C363.596 112.536 363.588 112.578 363.58 112.636C363.544 112.833 363.513 113.036 363.491 113.244C363.491 113.318 363.491 113.391 363.471 113.465C363.452 113.54 363.471 113.563 363.458 113.607C363.444 113.651 363.458 113.748 363.438 113.823C363.438 114.006 363.422 114.192 363.419 114.378C363.419 114.481 363.419 114.592 363.419 114.703C363.419 114.739 363.419 114.775 363.419 114.811C363.419 114.847 363.419 114.9 363.419 114.944C363.419 115.121 363.419 115.31 363.444 115.499C363.469 115.687 363.48 115.895 363.494 116.084Z" fill="url(#paint19_linear_0_7)"/>
<path fill-rule="evenodd" clip-rule="evenodd" d="M354.419 143.56C354.419 143.56 351.789 143.596 350.097 141.707C348.405 139.818 348.22 135.805 348.22 135.805L340.958 147.205L354.419 143.56Z" fill="url(#paint20_linear_0_7)"/>
<path fill-rule="evenodd" clip-rule="evenodd" d="M435.28 62.1424C435.305 62.331 435.336 62.5169 435.369 62.6972C435.383 62.7804 435.402 62.8664 435.416 62.9523C435.416 62.9884 435.416 63.0245 435.438 63.0633C435.461 63.1021 435.463 63.1937 435.477 63.2575C435.516 63.4424 435.558 63.6273 435.602 63.8122C435.649 64.0036 435.699 64.195 435.752 64.3891C435.752 64.3891 435.752 64.3891 435.752 64.4058V64.4252C435.799 64.6055 435.852 64.7858 435.907 64.98C435.963 65.1741 436.029 65.3766 436.096 65.5735L436.171 65.7843L436.215 65.9092L436.307 66.1699C436.381 66.3696 436.456 66.5693 436.537 66.769C436.595 66.916 436.659 67.063 436.72 67.2073L436.753 67.2877L436.786 67.3654C436.87 67.5503 436.956 67.7444 437.044 67.9479C437.133 68.1392 437.225 68.3306 437.322 68.5192L437.374 68.6247C437.388 68.6542 437.402 68.6829 437.419 68.7106C437.477 68.8299 437.535 68.9492 437.599 69.0657C437.693 69.2487 437.791 69.429 437.877 69.6066L438.096 69.9949L438.134 70.0642L438.176 70.1363C438.281 70.3166 438.387 70.4942 438.495 70.6717C438.603 70.8492 438.736 71.0628 438.861 71.2542L438.919 71.3429L438.994 71.4566C439.097 71.6092 439.197 71.7645 439.299 71.9143C439.402 72.0641 439.577 72.2915 439.704 72.4691L439.907 72.7464L439.987 72.8574C440.107 73.0183 440.237 73.1736 440.362 73.3317C440.545 73.5675 440.728 73.8032 440.917 74.0335C440.944 74.0695 440.972 74.1083 441.003 74.1444C441.28 74.4736 441.565 74.7962 441.857 75.1124C442.051 75.3232 442.251 75.5313 442.45 75.7365C442.65 75.9418 442.781 76.0666 442.947 76.2275C443.116 76.3911 443.285 76.5492 443.457 76.7046C443.629 76.8599 443.793 77.0097 443.965 77.1595L444.051 77.2316L444.14 77.3065L444.497 77.606C444.678 77.753 444.858 77.8973 445.052 78.036L445.224 78.1636L445.352 78.2606L445.629 78.4576C445.818 78.5935 446.009 78.7349 446.184 78.8542L446.439 79.0179L446.564 79.0983L446.75 79.2203C446.936 79.3341 447.121 79.4478 447.304 79.5532C447.438 79.6309 447.582 79.7058 447.709 79.7807L447.782 79.8195L447.851 79.8583C448.036 79.9526 448.213 80.0451 448.383 80.1357C448.558 80.2217 448.733 80.3021 448.91 80.3825L449.033 80.438L449.426 80.6044L449.573 80.6599L449.776 80.7376L449.931 80.7986L450.178 80.8818L450.356 80.9428L450.428 80.9678C450.591 81.0205 450.752 81.0704 450.913 81.1148C451.08 81.1629 451.243 81.2045 451.404 81.2396L451.468 81.2535L451.643 81.2896L451.889 81.3423L452.009 81.3617L452.222 81.395L452.386 81.4227L452.552 81.4393L452.763 81.4643H452.874H453.068H453.31H453.396C453.459 81.4643 453.523 81.4643 453.59 81.4643C453.656 81.4643 453.759 81.4643 453.845 81.4643H453.92C453.978 81.4643 454.031 81.4643 454.089 81.4643L454.386 81.4421H454.469L454.597 81.4227C454.719 81.4061 454.841 81.3866 454.96 81.3645L455.071 81.3478L455.149 81.3284C455.332 81.2868 455.512 81.2424 455.687 81.1869H455.731C455.977 81.1103 456.218 81.0176 456.452 80.9096C456.473 80.9 456.494 80.8917 456.516 80.8846L456.563 80.8569C456.663 80.8069 456.763 80.7542 456.857 80.6988L457.001 80.6183C457.14 80.5323 457.279 80.4408 457.412 80.3409L482.775 61.4462C482.642 61.5433 482.498 61.6348 482.362 61.7236L482.223 61.804C482.126 61.8595 482.029 61.9122 481.926 61.9621L481.815 62.0148C481.582 62.1224 481.342 62.2151 481.097 62.2922H481.047C480.87 62.3477 480.689 62.3921 480.492 62.4337L480.304 62.4697C480.185 62.4919 480.063 62.5113 479.938 62.528L479.73 62.5557L479.43 62.5779L479.189 62.5918H478.933C478.839 62.5918 478.748 62.5918 478.656 62.5918H478.415L478.11 62.5696L477.902 62.5446C477.791 62.5446 477.68 62.5169 477.566 62.5002L477.355 62.4669C477.233 62.4448 477.111 62.4226 476.986 62.3948L476.814 62.3588C476.631 62.3172 476.445 62.2728 476.26 62.2201C476.077 62.1674 475.891 62.1119 475.705 62.0481L475.527 61.9871C475.394 61.9427 475.25 61.8956 475.125 61.8429L474.923 61.7652C474.742 61.6958 474.562 61.621 474.368 61.5433C473.949 61.3574 473.536 61.1522 473.117 60.9275L473.045 60.8887C472.66 60.6779 472.277 60.4504 471.896 60.2063L471.769 60.1259C471.403 59.8874 471.042 59.635 470.682 59.3687L470.554 59.2744C470.191 58.997 469.833 58.7196 469.481 58.4145L469.392 58.3396C469.015 58.0151 468.643 57.6795 468.282 57.33C467.567 56.6349 466.89 55.9026 466.252 55.1359C466.063 54.9057 465.883 54.67 465.697 54.4342C465.547 54.24 465.389 54.0486 465.242 53.8489L465.04 53.5716C464.796 53.2332 464.557 52.8948 464.332 52.548C464.305 52.512 464.28 52.4731 464.255 52.4343C463.977 52.0127 463.719 51.5856 463.47 51.1556L463.434 51.0891C463.19 50.6656 462.959 50.2366 462.74 49.802L462.699 49.7188C462.48 49.275 462.272 48.8284 462.08 48.3791L462.047 48.2987C461.862 47.8678 461.694 47.4351 461.542 47.0006L461.498 46.8757C461.342 46.4292 461.201 45.9798 461.079 45.5305V45.5111C460.957 45.0599 460.851 44.6087 460.763 44.1575C460.763 44.1214 460.763 44.0826 460.74 44.0465C460.657 43.5972 460.588 43.1478 460.538 42.704C460.488 42.2602 460.466 41.8331 460.458 41.417V41.3255C460.458 40.9455 460.458 40.5766 460.496 40.216C460.496 40.1688 460.496 40.1217 460.51 40.0745C460.541 39.7404 460.588 39.4081 460.652 39.0787C460.652 39.0177 460.679 38.9595 460.691 38.9012C460.753 38.6081 460.831 38.3183 460.924 38.033C460.934 38.0012 460.944 37.9688 460.951 37.936C461.057 37.6283 461.183 37.3281 461.329 37.0373C461.345 36.9984 461.367 36.9652 461.387 36.9291C461.504 36.7057 461.634 36.489 461.775 36.28C461.825 36.2051 461.878 36.1358 461.933 36.0637C462.054 35.8998 462.184 35.7425 462.322 35.5922L462.493 35.4063C462.688 35.2073 462.895 35.0219 463.115 34.8516L437.752 53.7463C437.531 53.916 437.322 54.1014 437.128 54.301C437.069 54.3621 437.014 54.4259 436.958 54.4869C436.819 54.6365 436.689 54.7939 436.567 54.9584C436.512 55.0305 436.459 55.0999 436.409 55.1748C436.268 55.3832 436.139 55.5999 436.024 55.8238C436.004 55.8599 435.979 55.8932 435.963 55.932C435.957 55.9387 435.952 55.9462 435.949 55.9542C435.814 56.2294 435.696 56.5129 435.597 56.803C435.597 56.803 435.597 56.8224 435.597 56.8307C435.597 56.839 435.58 56.8973 435.569 56.9278C435.508 57.1136 435.449 57.2995 435.4 57.4964C435.375 57.5935 435.358 57.6961 435.336 57.796C435.314 57.8958 435.311 57.9125 435.297 57.9735C435.283 58.0345 435.275 58.0789 435.264 58.1316C435.228 58.3313 435.2 58.5366 435.175 58.7446C435.175 58.8195 435.175 58.8944 435.155 58.9693C435.136 59.0441 435.155 59.0636 435.155 59.1107C435.155 59.1579 435.142 59.2549 435.136 59.3271C435.136 59.5129 435.117 59.7015 435.114 59.8957C435.114 60.0011 435.114 60.1093 435.114 60.2174V60.3284C435.114 60.3728 435.114 60.4172 435.114 60.4615C435.114 60.6446 435.114 60.8304 435.139 61.0163C435.164 61.2021 435.169 61.3907 435.189 61.571C435.189 61.571 435.189 61.5932 435.189 61.6043C435.226 61.7892 435.256 61.9686 435.28 62.1424Z" fill="url(#paint21_linear_0_7)"/>
<path fill-rule="evenodd" clip-rule="evenodd" d="M474.433 61.5743C467.579 58.5648 461.379 50.1271 460.583 42.7129C459.787 35.2987 464.7 31.7455 471.551 34.7522C478.402 37.759 484.601 46.2022 485.395 53.6137C486.188 61.0251 481.284 64.5838 474.433 61.5743Z" fill="url(#paint22_linear_0_7)"/>
<path opacity="0.42" fill-rule="evenodd" clip-rule="evenodd" d="M173.383 55.1976C173.077 53.9036 173.069 52.5573 173.357 51.2594C173.645 49.9615 174.223 48.7456 175.048 47.7027C175.873 46.6597 176.922 45.8166 178.118 45.2364C179.315 44.6562 180.627 44.354 181.956 44.3523H365.445C368.101 44.3533 370.707 45.0793 372.981 46.452C370.394 44.394 367.186 43.2727 363.88 43.2705H180.395C179.065 43.2723 177.753 43.5746 176.557 44.1548C175.36 44.7349 174.311 45.578 173.486 46.6209C172.661 47.6638 172.083 48.8796 171.794 50.1774C171.505 51.4753 171.513 52.8216 171.818 54.1158L179.121 84.9737H180.433L173.383 55.1976Z" fill="url(#paint23_linear_0_7)"/>
<path fill-rule="evenodd" clip-rule="evenodd" d="M216.223 61.2849C219.145 63.9577 219.701 68.1064 217.464 70.5513C215.228 72.9962 211.046 72.8115 208.124 70.1388C205.202 67.466 204.647 63.3173 206.883 60.8724C209.119 58.4275 213.301 58.6122 216.223 61.2849Z" fill="#477CE2"/>
<path fill-rule="evenodd" clip-rule="evenodd" d="M222.503 47.3149L220.703 40.4721C220.164 38.3948 219.099 36.4911 217.612 34.944C216.125 33.3968 214.264 32.2583 212.21 31.6378C211.007 31.2699 209.756 31.083 208.499 31.083C205.452 31.0857 202.511 32.2002 200.227 34.2173L189.898 43.2681H195.063L202.474 36.7664C204.14 35.2961 206.285 34.4835 208.507 34.4808C209.424 34.4827 210.337 34.6201 211.214 34.8886C212.711 35.3436 214.066 36.1761 215.149 37.3059C216.232 38.4357 217.006 39.825 217.397 41.3403L219.197 48.1831C220.803 54.2854 215.533 64.3069 210.202 67.616H213.513L214.104 67.2803C217.506 65.3398 220.172 62.3318 221.69 58.7223C223.209 55.1128 223.494 51.1033 222.503 47.3149Z" fill="url(#paint24_linear_0_7)"/>
<path fill-rule="evenodd" clip-rule="evenodd" d="M219.195 47.3149L217.398 40.4721C216.859 38.3946 215.795 36.4906 214.307 34.9434C212.82 33.3962 210.959 32.2578 208.904 31.6378C207.703 31.27 206.453 31.083 205.196 31.083C202.149 31.0851 199.208 32.1997 196.925 34.2173L186.59 43.2681H191.757L199.169 36.7664C200.834 35.2959 202.979 34.4833 205.201 34.4808C206.118 34.4825 207.029 34.6199 207.906 34.8886C209.404 35.3413 210.761 36.1718 211.847 37.3001C212.932 38.4285 213.708 39.8169 214.102 41.332L215.903 48.1748C216.68 51.1445 216.485 54.2851 215.347 57.1362C214.21 59.9874 212.189 62.3992 209.581 64.0184L210.214 67.6076L210.804 67.272C214.203 65.3313 216.867 62.3242 218.384 58.7164C219.901 55.1085 220.186 51.1012 219.195 47.3149Z" fill="url(#paint25_linear_0_7)"/>
<path fill-rule="evenodd" clip-rule="evenodd" d="M251.939 61.2869C254.861 63.9597 255.416 68.1084 253.18 70.5533C250.943 72.9982 246.762 72.8135 243.84 70.1407C240.918 67.468 240.362 63.3193 242.599 60.8744C244.835 58.4295 249.017 58.6142 251.939 61.2869Z" fill="#477CE2"/>
<path fill-rule="evenodd" clip-rule="evenodd" d="M258.216 47.3149L256.416 40.4721C255.877 38.3946 254.813 36.4906 253.325 34.9434C251.838 33.3962 249.977 32.2578 247.923 31.6378C246.721 31.27 245.471 31.083 244.214 31.083C241.167 31.0851 238.226 32.1997 235.943 34.2173L225.611 43.2681H230.778L238.201 36.7747C239.867 35.3042 242.012 34.4916 244.234 34.4892C245.15 34.4908 246.062 34.6282 246.938 34.8969C248.437 35.3497 249.794 36.1801 250.879 37.3084C251.964 38.4368 252.741 39.8252 253.135 41.3403L254.935 48.1831C256.541 54.2854 251.268 64.3069 245.939 67.616H249.246L249.837 67.2803C253.235 65.3376 255.898 62.3284 257.413 58.7189C258.928 55.1094 259.21 51.1011 258.216 47.3149Z" fill="url(#paint26_linear_0_7)"/>
<path fill-rule="evenodd" clip-rule="evenodd" d="M254.909 47.3149L253.109 40.4721C252.57 38.3946 251.506 36.4906 250.019 34.9434C248.531 33.3962 246.671 32.2578 244.616 31.6378C243.414 31.2702 242.164 31.0832 240.907 31.083C237.861 31.0851 234.919 32.1997 232.636 34.2173L222.304 43.2681H227.471L234.872 36.7747C236.537 35.3046 238.681 34.492 240.902 34.4892C241.819 34.4908 242.732 34.6282 243.609 34.8969C245.108 35.3491 246.465 36.1794 247.549 37.3079C248.634 38.4364 249.41 39.825 249.803 41.3403L251.603 48.1831C252.38 51.1526 252.186 54.2927 251.049 57.1438C249.912 59.9948 247.892 62.4068 245.284 64.0267L245.917 67.616L246.508 67.2803C249.91 65.3409 252.578 62.3331 254.097 58.7234C255.616 55.1136 255.901 51.1036 254.909 47.3149Z" fill="url(#paint27_linear_0_7)"/>
<path fill-rule="evenodd" clip-rule="evenodd" d="M321.848 61.2859C324.77 63.9587 325.326 68.1074 323.089 70.5523C320.853 72.9972 316.671 72.8125 313.749 70.1397C310.827 67.467 310.272 63.3183 312.508 60.8734C314.744 58.4285 318.926 58.6132 321.848 61.2859Z" fill="#477CE2"/>
<path fill-rule="evenodd" clip-rule="evenodd" d="M328.133 47.3149L326.333 40.4721C325.794 38.3946 324.73 36.4906 323.242 34.9434C321.755 33.3962 319.894 32.2578 317.84 31.6378C316.638 31.2702 315.388 31.0832 314.131 31.083C311.084 31.0851 308.143 32.1997 305.86 34.2173L295.528 43.2681H300.695L308.101 36.7747C309.767 35.3042 311.912 34.4916 314.134 34.4892C315.051 34.4908 315.962 34.6282 316.838 34.8969C318.337 35.3497 319.694 36.1801 320.779 37.3084C321.864 38.4368 322.641 39.8252 323.035 41.3403L324.835 48.1831C326.441 54.2854 321.168 64.3069 315.84 67.616H319.146L319.737 67.2803C323.138 65.3401 325.805 62.3319 327.323 58.7223C328.841 55.1126 329.125 51.103 328.133 47.3149Z" fill="url(#paint28_linear_0_7)"/>
<path fill-rule="evenodd" clip-rule="evenodd" d="M324.826 47.3149L323.026 40.4721C322.486 38.3948 321.422 36.4911 319.935 34.944C318.447 33.3968 316.587 32.2583 314.532 31.6378C313.33 31.2699 312.079 31.083 310.821 31.083C307.775 31.0856 304.835 32.2001 302.553 34.2173L292.22 43.2681H297.388L304.799 36.7664C306.464 35.2963 308.608 34.4837 310.829 34.4808C311.747 34.4825 312.659 34.6199 313.537 34.8886C315.035 35.3413 316.392 36.1717 317.476 37.3001C318.561 38.4285 319.337 39.817 319.73 41.332L321.53 48.1748C322.307 51.1443 322.113 54.2844 320.976 57.1354C319.839 59.9865 317.819 62.3985 315.212 64.0184L315.844 67.6077L316.435 67.272C319.834 65.3313 322.498 62.3242 324.015 58.7164C325.532 55.1085 325.817 51.1012 324.826 47.3149Z" fill="url(#paint29_linear_0_7)"/>
<path fill-rule="evenodd" clip-rule="evenodd" d="M357.563 61.2859C360.485 63.9587 361.04 68.1074 358.804 70.5523C356.568 72.9972 352.386 72.8125 349.464 70.1397C346.542 67.467 345.986 63.3183 348.223 60.8734C350.459 58.4285 354.641 58.6132 357.563 61.2859Z" fill="#477CE2"/>
<path fill-rule="evenodd" clip-rule="evenodd" d="M363.852 47.3149L362.052 40.4721C361.513 38.3948 360.448 36.4911 358.961 34.944C357.473 33.3968 355.613 32.2583 353.559 31.6378C352.357 31.2702 351.107 31.0832 349.85 31.083C346.803 31.0851 343.862 32.1997 341.579 34.2173L331.241 43.2681H336.409L343.82 36.7664C345.485 35.2963 347.629 34.4837 349.85 34.4808C350.768 34.4825 351.68 34.6199 352.557 34.8886C354.056 35.3413 355.412 36.1717 356.497 37.3001C357.582 38.4285 358.358 39.817 358.751 41.332L360.551 48.1748C362.157 54.277 356.887 64.2986 351.559 67.6076H354.865L355.456 67.272C358.856 65.3322 361.521 62.3254 363.039 58.7175C364.557 55.1096 364.842 51.1018 363.852 47.3149Z" fill="url(#paint30_linear_0_7)"/>
<path fill-rule="evenodd" clip-rule="evenodd" d="M360.539 47.3149L358.739 40.4721C358.201 38.3964 357.139 36.4938 355.654 34.9468C354.169 33.3998 352.312 32.2603 350.26 31.6378C349.057 31.2699 347.806 31.083 346.548 31.083C343.502 31.0862 340.561 32.2006 338.277 34.2173L327.934 43.2681H333.101L340.51 36.7664C342.176 35.2961 344.321 34.4835 346.543 34.4808C347.46 34.4827 348.373 34.6201 349.25 34.8886C350.748 35.3413 352.105 36.1717 353.19 37.3001C354.274 38.4285 355.051 39.817 355.444 41.332L357.244 48.1748C358.021 51.1443 357.826 54.2844 356.689 57.1354C355.552 59.9865 353.532 62.3985 350.925 64.0184L351.558 67.6077L352.149 67.272C355.547 65.3313 358.211 62.3242 359.728 58.7164C361.245 55.1085 361.53 51.1012 360.539 47.3149Z" fill="url(#paint31_linear_0_7)"/>
<path fill-rule="evenodd" clip-rule="evenodd" d="M503.336 398.818L505 399.467C504.481 399.168 503.92 398.95 503.336 398.818Z" fill="url(#paint32_linear_0_7)"/>
<path fill-rule="evenodd" clip-rule="evenodd" d="M168.401 272.747C189.319 292.029 193.033 322.027 176.697 339.749C160.36 357.471 130.16 356.207 109.243 336.925C88.325 317.643 84.6111 287.645 100.947 269.923C117.284 252.201 147.484 253.465 168.401 272.747Z" fill="url(#paint33_linear_0_7)"/>
<path fill-rule="evenodd" clip-rule="evenodd" d="M177.263 263.748C198.18 283.03 201.894 313.028 185.558 330.75C169.222 348.472 139.021 347.208 118.104 327.926C97.1863 308.644 93.4725 278.646 109.809 260.924C126.145 243.202 156.345 244.466 177.263 263.748Z" fill="url(#paint34_linear_0_7)"/>
<path fill-rule="evenodd" clip-rule="evenodd" d="M158.071 342.376C131.89 342.376 107.14 321.143 102.793 294.945C99.4204 274.622 109.331 257.289 126.176 250.543C107.822 256.518 96.7576 274.547 100.294 295.866C104.641 322.056 129.391 343.297 155.572 343.297C161.101 343.333 166.586 342.308 171.729 340.279C167.315 341.693 162.706 342.401 158.071 342.376Z" fill="url(#paint35_linear_0_7)"/>
<g filter="url(#filter7_i_0_7)">
<path fill-rule="evenodd" clip-rule="evenodd" d="M125.09 285.975L136.626 310.661C137.222 311.94 138.287 312.942 139.6 313.458C140.914 313.974 142.375 313.966 143.683 313.435L182.282 297.735C182.98 297.451 183.54 296.905 183.842 296.214C184.144 295.523 184.165 294.741 183.899 294.035L181.869 288.61C181.733 288.249 181.526 287.919 181.261 287.64C180.995 287.36 180.677 287.136 180.324 286.981C179.971 286.826 179.591 286.743 179.206 286.737C178.82 286.731 178.438 286.802 178.08 286.946L150.573 298.004C149.292 298.52 147.865 298.535 146.573 298.047C145.282 297.559 144.221 296.603 143.602 295.369L136.302 280.827C136.009 280.241 135.502 279.79 134.885 279.569C134.269 279.348 133.591 279.373 132.993 279.639L126.377 282.569C126.067 282.705 125.787 282.902 125.553 283.148C125.32 283.394 125.138 283.684 125.018 284.001C124.898 284.318 124.843 284.656 124.855 284.995C124.868 285.334 124.948 285.667 125.09 285.975Z" fill="url(#paint36_linear_0_7)"/>
</g>
</g>
</g>
</g>
<defs>
<filter id="filter0_f_0_7" x="265.096" y="358.73" width="354.573" height="122.319" filterUnits="userSpaceOnUse" color-interpolation-filters="sRGB">
<feFlood flood-opacity="0" result="BackgroundImageFix"/>
<feBlend mode="normal" in="SourceGraphic" in2="BackgroundImageFix" result="shape"/>
<feGaussianBlur stdDeviation="8.83442" result="effect1_foregroundBlur_0_7"/>
</filter>
<filter id="filter1_f_0_7" x="230.993" y="308.718" width="126.622" height="107.552" filterUnits="userSpaceOnUse" color-interpolation-filters="sRGB">
<feFlood flood-opacity="0" result="BackgroundImageFix"/>
<feBlend mode="normal" in="SourceGraphic" in2="BackgroundImageFix" result="shape"/>
<feGaussianBlur stdDeviation="20.3871" result="effect1_foregroundBlur_0_7"/>
</filter>
<filter id="filter2_f_0_7" x="109.643" y="305.944" width="106.859" height="106.166" filterUnits="userSpaceOnUse" color-interpolation-filters="sRGB">
<feFlood flood-opacity="0" result="BackgroundImageFix"/>
<feBlend mode="normal" in="SourceGraphic" in2="BackgroundImageFix" result="shape"/>
<feGaussianBlur stdDeviation="20.3871" result="effect1_foregroundBlur_0_7"/>
</filter>
<filter id="filter3_f_0_7" x="27.126" y="9.84882" width="123.501" height="303.795" filterUnits="userSpaceOnUse" color-interpolation-filters="sRGB">
<feFlood flood-opacity="0" result="BackgroundImageFix"/>
<feBlend mode="normal" in="SourceGraphic" in2="BackgroundImageFix" result="shape"/>
<feGaussianBlur stdDeviation="20.3871" result="effect1_foregroundBlur_0_7"/>
</filter>
<filter id="filter4_f_0_7" x="123.395" y="49.3946" width="221.711" height="231.711" filterUnits="userSpaceOnUse" color-interpolation-filters="sRGB">
<feFlood flood-opacity="0" result="BackgroundImageFix"/>
<feBlend mode="normal" in="SourceGraphic" in2="BackgroundImageFix" result="shape"/>
<feGaussianBlur stdDeviation="11.5527" result="effect1_foregroundBlur_0_7"/>
</filter>
<filter id="filter5_b_0_7" x="172.324" y="78.1789" width="278.056" height="133.506" filterUnits="userSpaceOnUse" color-interpolation-filters="sRGB">
<feFlood flood-opacity="0" result="BackgroundImageFix"/>
<feGaussianBlur in="BackgroundImageFix" stdDeviation="3.39785"/>
<feComposite in2="SourceAlpha" operator="in" result="effect1_backgroundBlur_0_7"/>
<feBlend mode="normal" in="SourceGraphic" in2="effect1_backgroundBlur_0_7" result="shape"/>
</filter>
<filter id="filter6_f_0_7" x="339.278" y="42.9588" width="133.284" height="116.281" filterUnits="userSpaceOnUse" color-interpolation-filters="sRGB">
<feFlood flood-opacity="0" result="BackgroundImageFix"/>
<feBlend mode="normal" in="SourceGraphic" in2="BackgroundImageFix" result="shape"/>
<feGaussianBlur stdDeviation="13.5914" result="effect1_foregroundBlur_0_7"/>
</filter>
<filter id="filter7_i_0_7" x="124.854" y="279.42" width="59.2307" height="34.4194" filterUnits="userSpaceOnUse" color-interpolation-filters="sRGB">
<feFlood flood-opacity="0" result="BackgroundImageFix"/>
<feBlend mode="normal" in="SourceGraphic" in2="BackgroundImageFix" result="shape"/>
<feColorMatrix in="SourceAlpha" type="matrix" values="0 0 0 0 0 0 0 0 0 0 0 0 0 0 0 0 0 0 127 0" result="hardAlpha"/>
<feOffset dy="-1"/>
<feComposite in2="hardAlpha" operator="arithmetic" k2="-1" k3="1"/>
<feColorMatrix type="matrix" values="0 0 0 0 1 0 0 0 0 1 0 0 0 0 1 0 0 0 1 0"/>
<feBlend mode="normal" in2="shape" result="effect1_innerShadow_0_7"/>
</filter>
<linearGradient id="paint0_linear_0_7" x1="386.608" y1="458.34" x2="456.279" y2="325.33" gradientUnits="userSpaceOnUse">
<stop stop-color="#447CEA" stop-opacity="0.76"/>
<stop offset="1" stop-color="#447CEA" stop-opacity="0.11"/>
</linearGradient>
<linearGradient id="paint1_linear_0_7" x1="564.239" y1="391.335" x2="414.588" y2="137.333" gradientUnits="userSpaceOnUse">
<stop stop-color="#8DB2FF"/>
<stop offset="0.6875" stop-color="white"/>
<stop offset="1" stop-color="#C7D9FF"/>
</linearGradient>
<linearGradient id="paint2_linear_0_7" x1="589.361" y1="452.723" x2="584.163" y2="328.854" gradientUnits="userSpaceOnUse">
<stop stop-color="#B7D1FF"/>
<stop offset="1" stop-color="#ECF3FF"/>
</linearGradient>
<linearGradient id="paint3_linear_0_7" x1="-91.8334" y1="337.438" x2="-89.1731" y2="435.647" gradientUnits="userSpaceOnUse">
<stop stop-color="white" stop-opacity="0.01"/>
<stop offset="1" stop-color="white" stop-opacity="0.56"/>
</linearGradient>
<linearGradient id="paint4_linear_0_7" x1="311.536" y1="364.14" x2="311.536" y2="100.038" gradientUnits="userSpaceOnUse">
<stop stop-color="#6091F7"/>
<stop offset="0.552083" stop-color="#84B6FA"/>
<stop offset="1" stop-color="#578CF7"/>
</linearGradient>
<linearGradient id="paint5_linear_0_7" x1="311.536" y1="364.14" x2="311.536" y2="100.038" gradientUnits="userSpaceOnUse">
<stop stop-color="#6091F7"/>
<stop offset="0.552083" stop-color="#84B6FA"/>
<stop offset="1" stop-color="#578CF7"/>
</linearGradient>
<linearGradient id="paint6_linear_0_7" x1="77.8346" y1="1.90116" x2="70.1529" y2="151.034" gradientUnits="userSpaceOnUse">
<stop offset="0.0001" stop-color="#588DF8"/>
<stop offset="0.484375" stop-color="#E3EFFF"/>
<stop offset="1" stop-color="#588DF8"/>
</linearGradient>
<linearGradient id="paint7_linear_0_7" x1="3.2255" y1="142.444" x2="134.764" y2="370.953" gradientUnits="userSpaceOnUse">
<stop stop-color="white" stop-opacity="0.54"/>
<stop offset="1" stop-color="white" stop-opacity="0.01"/>
</linearGradient>
<linearGradient id="paint8_linear_0_7" x1="161.451" y1="173.151" x2="216.935" y2="361.281" gradientUnits="userSpaceOnUse">
<stop stop-color="#FEFEFF"/>
<stop offset="1" stop-color="#DFEEFF"/>
</linearGradient>
<linearGradient id="paint9_linear_0_7" x1="147.977" y1="246.476" x2="387.554" y2="323.242" gradientUnits="userSpaceOnUse">
<stop stop-color="#D2E3FF"/>
<stop offset="0.28125" stop-color="#598EF9"/>
<stop offset="0.604536" stop-color="#BED6FF"/>
<stop offset="1" stop-color="#598AF9"/>
</linearGradient>
<linearGradient id="paint10_linear_0_7" x1="396.6" y1="245.246" x2="377.55" y2="112.248" gradientUnits="userSpaceOnUse">
<stop stop-color="#B7D1FF"/>
<stop offset="1" stop-color="#ECF3FF"/>
</linearGradient>
<linearGradient id="paint11_linear_0_7" x1="171.513" y1="56.1104" x2="191.142" y2="243.358" gradientUnits="userSpaceOnUse">
<stop stop-color="white" stop-opacity="0.01"/>
<stop offset="1" stop-color="white" stop-opacity="0.56"/>
</linearGradient>
<linearGradient id="paint12_linear_0_7" x1="161.024" y1="37.3986" x2="179.957" y2="85.6647" gradientUnits="userSpaceOnUse">
<stop stop-color="#98C7FF"/>
<stop offset="1" stop-color="#558DFF"/>
</linearGradient>
<linearGradient id="paint13_linear_0_7" x1="148.723" y1="36.4075" x2="149.265" y2="90.6322" gradientUnits="userSpaceOnUse">
<stop stop-color="#60A5F7"/>
<stop offset="1" stop-color="#578CF7"/>
</linearGradient>
<linearGradient id="paint14_linear_0_7" x1="174.321" y1="100.084" x2="185.942" y2="199.857" gradientUnits="userSpaceOnUse">
<stop stop-color="#FEFEFF" stop-opacity="0.78"/>
<stop offset="1" stop-color="#DBE7FF" stop-opacity="0.62"/>
</linearGradient>
<linearGradient id="paint15_linear_0_7" x1="185.977" y1="101.783" x2="202.26" y2="223.236" gradientUnits="userSpaceOnUse">
<stop stop-color="white" stop-opacity="0.01"/>
<stop offset="1" stop-color="white"/>
</linearGradient>
<linearGradient id="paint16_linear_0_7" x1="486.501" y1="164.215" x2="475.29" y2="67.8433" gradientUnits="userSpaceOnUse">
<stop stop-color="#8CB9FF"/>
<stop offset="1" stop-color="#DAE8FF"/>
</linearGradient>
<linearGradient id="paint17_linear_0_7" x1="454.554" y1="95.5018" x2="440.334" y2="69.1632" gradientUnits="userSpaceOnUse">
<stop stop-color="#8CAEFA"/>
<stop offset="1" stop-color="#E3ECFF"/>
</linearGradient>
<linearGradient id="paint18_linear_0_7" x1="454.554" y1="95.5018" x2="440.334" y2="69.1632" gradientUnits="userSpaceOnUse">
<stop stop-color="#8CAEFA"/>
<stop offset="1" stop-color="#E3ECFF"/>
</linearGradient>
<linearGradient id="paint19_linear_0_7" x1="373.526" y1="132.532" x2="368.321" y2="123.039" gradientUnits="userSpaceOnUse">
<stop stop-color="#5C90FA"/>
<stop offset="1" stop-color="#E3EEFF"/>
</linearGradient>
<linearGradient id="paint20_linear_0_7" x1="353.776" y1="142.191" x2="349.468" y2="136.077" gradientUnits="userSpaceOnUse">
<stop stop-color="#4B8FFF"/>
<stop offset="0.9999" stop-color="#CEE8FF"/>
<stop offset="1" stop-color="#BFCCFF"/>
</linearGradient>
<linearGradient id="paint21_linear_0_7" x1="462.239" y1="56.6262" x2="452.089" y2="45.3063" gradientUnits="userSpaceOnUse">
<stop stop-color="#588DF8"/>
<stop offset="1" stop-color="#C1DEFF"/>
</linearGradient>
<linearGradient id="paint22_linear_0_7" x1="482.063" y1="62.6437" x2="482.063" y2="41.6039" gradientUnits="userSpaceOnUse">
<stop stop-color="#588DF8"/>
<stop offset="1" stop-color="#4B85FA"/>
</linearGradient>
<linearGradient id="paint23_linear_0_7" x1="171.58" y1="84.9783" x2="372.981" y2="84.9783" gradientUnits="userSpaceOnUse">
<stop stop-color="white"/>
<stop offset="1" stop-color="#7BB0FF"/>
</linearGradient>
<linearGradient id="paint24_linear_0_7" x1="189.898" y1="67.6161" x2="223.086" y2="67.6161" gradientUnits="userSpaceOnUse">
<stop stop-color="#A1C1FF"/>
<stop offset="1" stop-color="#598EF9"/>
</linearGradient>
<linearGradient id="paint25_linear_0_7" x1="182.074" y1="40.2161" x2="200.84" y2="75.0559" gradientUnits="userSpaceOnUse">
<stop offset="0.375" stop-color="#E1EAFF"/>
<stop offset="1" stop-color="#D7E4FF"/>
</linearGradient>
<linearGradient id="paint26_linear_0_7" x1="225.611" y1="67.6161" x2="258.802" y2="67.6161" gradientUnits="userSpaceOnUse">
<stop stop-color="#A1C1FF"/>
<stop offset="1" stop-color="#598EF9"/>
</linearGradient>
<linearGradient id="paint27_linear_0_7" x1="217.788" y1="40.2182" x2="236.561" y2="75.0626" gradientUnits="userSpaceOnUse">
<stop offset="0.375" stop-color="#E1EAFF"/>
<stop offset="1" stop-color="#D7E4FF"/>
</linearGradient>
<linearGradient id="paint28_linear_0_7" x1="295.528" y1="67.6161" x2="328.717" y2="67.6161" gradientUnits="userSpaceOnUse">
<stop stop-color="#A1C1FF"/>
<stop offset="1" stop-color="#598EF9"/>
</linearGradient>
<linearGradient id="paint29_linear_0_7" x1="287.704" y1="40.2161" x2="306.471" y2="75.0559" gradientUnits="userSpaceOnUse">
<stop offset="0.375" stop-color="#E1EAFF"/>
<stop offset="1" stop-color="#D7E4FF"/>
</linearGradient>
<linearGradient id="paint30_linear_0_7" x1="331.241" y1="67.6078" x2="364.434" y2="67.6078" gradientUnits="userSpaceOnUse">
<stop stop-color="#A1C1FF"/>
<stop offset="1" stop-color="#598EF9"/>
</linearGradient>
<linearGradient id="paint31_linear_0_7" x1="323.418" y1="40.2161" x2="342.184" y2="75.0559" gradientUnits="userSpaceOnUse">
<stop offset="0.375" stop-color="#E1EAFF"/>
<stop offset="1" stop-color="#D7E4FF"/>
</linearGradient>
<linearGradient id="paint32_linear_0_7" x1="505.009" y1="398.817" x2="503.336" y2="398.817" gradientUnits="userSpaceOnUse">
<stop stop-color="#FFAC06"/>
<stop offset="1" stop-color="#F66C1E"/>
</linearGradient>
<linearGradient id="paint33_linear_0_7" x1="169.559" y1="329.504" x2="128.032" y2="258.675" gradientUnits="userSpaceOnUse">
<stop stop-color="#FFAC06"/>
<stop offset="0.505208" stop-color="#FFDE89"/>
<stop offset="1" stop-color="#F66C1E"/>
</linearGradient>
<linearGradient id="paint34_linear_0_7" x1="255.462" y1="295.006" x2="128.159" y2="174.114" gradientUnits="userSpaceOnUse">
<stop stop-color="#FFAC06"/>
<stop offset="1" stop-color="#F66C1E"/>
</linearGradient>
<linearGradient id="paint35_linear_0_7" x1="97.3039" y1="340.277" x2="168.417" y2="342.727" gradientUnits="userSpaceOnUse">
<stop stop-color="#FFFCE5"/>
<stop offset="1" stop-color="white"/>
</linearGradient>
<linearGradient id="paint36_linear_0_7" x1="123.779" y1="283.757" x2="128.017" y2="312.151" gradientUnits="userSpaceOnUse">
<stop stop-color="#FEFEFF"/>
<stop offset="1" stop-color="#FFE0B5"/>
</linearGradient>
<clipPath id="clip0_0_7">
<rect width="602" height="465.76" fill="white"/>
</clipPath>
<clipPath id="clip1_0_7">
<rect width="505" height="465.76" fill="white"/>
</clipPath>
<clipPath id="clip2_0_7">
<rect width="477.84" height="156.17" fill="white" transform="translate(0 309.592)"/>
</clipPath>
<clipPath id="clip3_0_7">
<rect width="437.1" height="399.47" fill="white" transform="translate(67.9005)"/>
</clipPath>
<clipPath id="clip4_0_7">
<rect width="282.23" height="363.52" fill="white" transform="translate(67.9004 0.619141)"/>
</clipPath>
</defs>
</svg>
